<svg width="41" height="41" viewBox="0 0 41 41" fill="none" xmlns="http://www.w3.org/2000/svg">
<g clip-path="url(#clip0_41_96)">
<path d="M26.7186 22.0929C26.441 23.6518 25.7614 24.9957 24.6567 25.9825C20.8381 29.3937 13.3852 27.249 8.00924 21.1928C2.63327 15.1365 1.36962 7.46137 5.18821 4.05135C9.0068 0.640174 16.4597 2.78487 21.8356 8.8411C22.2561 9.31487 22.6524 9.79905 23.0221 10.2902L29.6917 10.3086C28.9867 4.4997 24.0531 0 18.0735 0H11.7046C5.24005 0 0 5.25659 0 11.7415V18.1305C0 24.6155 5.24005 29.8721 11.7046 29.8721H18.0735C23.1431 29.8721 27.4604 26.6388 29.0869 22.1149L26.7186 22.0929Z" fill="white"/>
<path d="M14.8446 25.3643C14.8919 25.2707 14.9402 25.1782 14.9898 25.0846C16.0749 23.0451 17.6484 21.0252 19.6527 19.2353C25.6899 13.8423 33.3397 12.5758 36.7402 16.4053C40.1406 20.236 38.0027 27.7124 31.9655 33.1053C25.9283 38.4982 18.2785 39.7647 14.878 35.9352C13.6973 34.6052 13.1836 32.8337 13.2711 30.8635C13.2734 30.8138 13.2757 30.763 13.2792 30.7122L11.223 30.7075V37.6801C11.223 39.5128 12.7044 40.9977 14.5302 40.9977H29.2954C35.7599 40.9977 40.9999 35.7411 40.9999 29.2562V22.8671C40.9999 16.3822 35.7599 11.1256 29.2954 11.1256H14.5302C12.7032 11.1256 11.223 12.6117 11.223 14.4432V23.1491C13.0177 24.4791 14.8446 25.3608 14.8446 25.3608V25.3643Z" fill="white"/>
</g>
<defs>
<clipPath id="clip0_41_96">
<rect width="41" height="41" fill="white"/>
</clipPath>
</defs>
</svg>
