<svg width="193" height="53" viewBox="0 0 193 53" fill="none" xmlns="http://www.w3.org/2000/svg">
<g clip-path="url(#clip0_41_108)">
<path d="M6.8272 26.4216C4.67932 25.213 3.00448 23.5364 1.80269 21.3867C0.600896 19.2421 0 16.8172 0 14.1172C0 11.4172 0.600896 8.99491 1.80269 6.84775C3.00448 4.7006 4.67164 3.02402 6.8093 1.81287C8.94184 0.604289 11.3787 0 14.1147 0C17.3109 0 20.0904 0.835719 22.4556 2.50716C24.8208 4.17859 26.4624 6.42861 27.3829 9.25719L21.0544 11.2629C20.5685 9.77148 19.717 8.58347 18.505 7.69376C17.2905 6.80661 15.8636 6.36432 14.2297 6.36432C12.7978 6.36432 11.5193 6.69089 10.3942 7.34661C9.26913 8.00233 8.39208 8.92291 7.76817 10.1058C7.14171 11.2886 6.8272 12.6258 6.8272 14.1172C6.8272 15.6087 7.13915 16.9458 7.76817 18.1287C8.39464 19.3115 9.27681 20.2295 10.4147 20.8853C11.5525 21.541 12.8515 21.8701 14.309 21.8701C15.9966 21.8701 17.4541 21.433 18.6815 20.5587C19.9088 19.6844 20.7782 18.5015 21.2896 17.0101L27.5798 18.9772C26.6593 21.8058 25.0024 24.0558 22.6141 25.7273C20.2233 27.3987 17.4157 28.2344 14.1965 28.2344C11.4349 28.2344 8.98019 27.6301 6.83231 26.4216H6.8272Z" fill="white"/>
<path d="M30.8374 0.617142H36.9742V8.94861C38.4573 7.40575 40.4645 6.63432 42.9959 6.63432C45.5274 6.63432 47.6369 7.45204 49.1711 9.08233C50.7053 10.7152 51.4724 12.9344 51.4724 15.7372V27.6173H45.3356V16.5858C45.3356 15.1715 44.9572 14.0529 44.2054 13.2301C43.4511 12.4072 42.4334 11.9958 41.1549 11.9958C39.8764 11.9958 38.8587 12.4072 38.1044 13.2301C37.3501 14.0529 36.9742 15.1715 36.9742 16.5858V27.6173H30.8374V0.617142Z" fill="white"/>
<path d="M57.3202 26.6324C56.0034 25.5653 55.3437 24.0944 55.3437 22.2173C55.3437 20.3401 55.9446 18.9644 57.1463 17.8587C58.3481 16.7529 60.023 16.0972 62.1709 15.8915L69.8802 15.1587C69.8547 14.0272 69.42 13.1221 68.5761 12.4406C67.7323 11.7592 66.6073 11.4172 65.2009 11.4172C62.7206 11.4172 61.0586 12.4844 60.2147 14.6187L55.1135 12.9601C55.8295 10.9543 57.0824 9.39862 58.8723 8.2929C60.6622 7.18718 62.8485 6.63432 65.431 6.63432C67.5278 6.63432 69.356 7.00718 70.9158 7.7529C72.4756 8.49862 73.6774 9.56577 74.5212 10.9543C75.365 12.3429 75.7869 13.9629 75.7869 15.8144V21.9087L76.2855 27.6173H70.8007L70.3021 24.9559C69.5862 25.9587 68.5582 26.7559 67.2158 27.3473C65.8734 27.9387 64.3699 28.2344 62.7104 28.2344C60.4347 28.2344 58.6371 27.6996 57.3202 26.6324ZM68.3102 22.2353C69.3586 21.271 69.8828 20.0573 69.8828 18.5915L63.5158 19.7101C62.0328 19.9415 61.2912 20.5973 61.2912 21.6773C61.2912 22.3201 61.5521 22.8138 62.0788 23.161C62.603 23.5081 63.3496 23.683 64.3239 23.683C65.9348 23.683 67.2644 23.1996 68.3128 22.2378L68.3102 22.2353Z" fill="white"/>
<path d="M81.1208 7.25147H86.3755L86.759 10.2215C88.0887 8.1129 90.1982 7.05861 93.0876 7.05861C93.9826 7.05861 94.7752 7.1229 95.4656 7.25147V12.9601C94.5707 12.8315 93.8292 12.7672 93.241 12.7672C91.1954 12.7672 89.6868 13.3021 88.7152 14.3692C87.7435 15.4364 87.2577 17.1027 87.2577 19.363V27.6173H81.1208V7.25147Z" fill="white"/>
<path d="M98.6875 0.617142H104.824V27.6173H98.6875V0.617142Z" fill="white"/>
<path d="M114.431 26.8459C112.731 25.9201 111.401 24.6421 110.442 23.0093C109.483 21.3764 109.005 19.5172 109.005 17.4369C109.005 15.3566 109.486 13.4975 110.442 11.8646C111.401 10.2318 112.731 8.95118 114.431 8.02547C116.131 7.09975 118.054 6.63689 120.205 6.63689C122.355 6.63689 124.276 7.09975 125.979 8.02547C127.679 8.95118 129.009 10.2318 129.967 11.8646C130.926 13.4975 131.404 15.3541 131.404 17.4369C131.404 19.5198 130.924 21.379 129.967 23.0093C129.009 24.6421 127.679 25.9227 125.979 26.8459C124.278 27.7716 122.355 28.2344 120.205 28.2344C118.054 28.2344 116.131 27.7716 114.431 26.8459ZM124.058 21.3687C125.068 20.3401 125.572 19.0287 125.572 17.4344C125.572 15.8401 125.066 14.5209 124.058 13.4795C123.048 12.4381 121.762 11.9161 120.202 11.9161C118.642 11.9161 117.356 12.4381 116.346 13.4795C115.336 14.5209 114.833 15.8401 114.833 17.4344C114.833 19.0287 115.336 20.3401 116.346 21.3687C117.356 22.3973 118.64 22.9115 120.202 22.9115C121.765 22.9115 123.046 22.3973 124.058 21.3687Z" fill="white"/>
<path d="M145.747 27.8101C142.806 27.8101 140.645 27.1159 139.265 25.7273C137.884 24.3387 137.193 22.1658 137.193 19.2087V12.3815H132.552V7.79147L137.232 7.13575V1.77429H143.33V7.25146H149.39V12.3429H143.33V18.3215C143.33 19.8387 143.599 20.9058 144.136 21.523C144.673 22.1401 145.619 22.4487 146.974 22.4487C147.869 22.4487 148.726 22.3844 149.544 22.2558V27.4244C148.342 27.6816 147.076 27.8101 145.747 27.8101Z" fill="white"/>
<path d="M164.656 27.8101C161.715 27.8101 159.554 27.1159 158.174 25.7273C156.793 24.3387 156.102 22.1658 156.102 19.2087V12.3815H151.461V7.79147L156.141 7.13575V1.77429H162.239V7.25146H168.299V12.3429H162.239V18.3215C162.239 19.8387 162.508 20.9058 163.045 21.523C163.582 22.1401 164.528 22.4487 165.883 22.4487C166.778 22.4487 167.634 22.3844 168.453 22.2558V27.4244C167.251 27.6816 165.985 27.8101 164.656 27.8101Z" fill="white"/>
<path d="M176.277 26.9024C174.538 26.0153 173.201 24.7604 172.27 23.143C171.337 21.523 170.872 19.6201 170.872 17.4344C170.872 15.2487 171.332 13.4178 172.252 11.7824C173.173 10.1495 174.464 8.88434 176.126 7.98433C177.788 7.08433 179.719 6.63432 181.918 6.63432C184.117 6.63432 186.014 7.09204 187.689 8.0049C189.364 8.91776 190.655 10.1906 191.563 11.8235C192.471 13.4564 192.926 15.3155 192.926 17.3958C192.926 17.9872 192.887 18.5915 192.811 19.2087H176.778C177.034 20.5458 177.653 21.595 178.64 22.3536C179.624 23.1121 180.869 23.4901 182.378 23.4901C183.708 23.4901 184.892 23.2021 185.927 22.621C186.963 22.0398 187.735 21.2273 188.249 20.1704L193.005 22.4847C192.11 24.2847 190.734 25.6939 188.883 26.7096C187.029 27.7253 184.848 28.2319 182.342 28.2319C180.041 28.2319 178.021 27.787 176.282 26.9024H176.277ZM186.825 15.3129C186.569 14.0786 186.001 13.1015 185.119 12.3815C184.237 11.6615 183.155 11.3015 181.879 11.3015C180.524 11.3015 179.386 11.7078 178.466 12.5178C177.545 13.3278 176.983 14.4155 176.778 15.7758L186.827 15.3129H186.825Z" fill="white"/>
<path d="M19.5687 37.3811C21.0671 36.4682 22.6064 35.725 24.1841 35.1542C25.7618 34.5833 27.4034 34.1488 29.1063 33.853C29.697 33.763 30.3669 33.6756 31.1161 33.5959C31.8653 33.5162 32.5992 33.5265 33.3126 33.6293C34.0286 33.7322 34.6704 33.961 35.238 34.3159C35.8057 34.6708 36.202 35.2236 36.4296 35.977C36.5881 36.5016 36.6342 37.0159 36.5651 37.5199C36.4961 38.0213 36.3708 38.5125 36.1892 38.9933C35.8492 39.9294 35.371 40.7908 34.7573 41.5802C34.1436 42.3671 33.5069 43.1179 32.8498 43.8251C31.85 44.9 30.7377 45.8797 29.5103 46.772C28.283 47.6617 26.9891 48.4691 25.6263 49.1865C24.2634 49.9066 22.8673 50.534 21.4353 51.0714C20.0034 51.6088 18.5843 52.0486 17.1754 52.3906C16.1986 52.6426 15.1477 52.82 14.0251 52.9229C12.9001 53.0257 11.7699 53.0309 10.6346 52.9409C9.49925 52.8509 8.40229 52.6374 7.34625 52.3083C6.29021 51.9766 5.35434 51.4803 4.5361 50.8168C4.40058 50.7037 4.33154 50.588 4.33154 50.4748C4.33154 50.3617 4.36478 50.2588 4.43382 50.1663C4.50286 50.0763 4.58724 50.0171 4.68952 49.994C4.7918 49.9708 4.87618 50.0068 4.94522 50.0968C5.1728 50.2126 5.38759 50.3308 5.59215 50.4568C5.79671 50.5828 6.01149 50.7037 6.23907 50.8168C7.19283 51.2977 8.17472 51.6397 9.18729 51.8454C10.1973 52.0511 11.2201 52.154 12.2531 52.154C13.2862 52.154 14.3192 52.0563 15.3548 51.8634C16.3878 51.6706 17.4055 51.4237 18.4053 51.128C19.9497 50.6703 21.489 50.1123 23.0207 49.4488C24.5549 48.7854 26.02 48.0165 27.4162 47.1371C28.8123 46.2577 30.1189 45.2522 31.3335 44.1208C32.5481 42.9894 33.599 41.7294 34.4863 40.3356C34.7138 39.9705 34.9286 39.5591 35.1332 39.1013C35.3378 38.6436 35.4861 38.2116 35.5756 37.8002C35.6651 37.3888 35.6881 36.9722 35.6446 36.5505C35.5986 36.1288 35.4298 35.7559 35.1332 35.437C34.655 34.9125 33.957 34.591 33.039 34.4779C32.1185 34.3648 31.0803 34.393 29.922 34.5628C28.7637 34.735 27.5542 35.0205 26.2936 35.419C25.033 35.8202 23.8338 36.2573 22.6985 36.7382C21.5632 37.2191 20.5455 37.7153 19.648 38.2296C18.7505 38.7439 18.0984 39.2068 17.6893 39.6182C17.5308 39.7545 17.3492 39.9551 17.1447 40.2174C16.9401 40.4796 16.7356 40.7548 16.531 41.0402C16.3264 41.3256 16.1219 41.6059 15.9173 41.8785C15.7128 42.1537 15.5312 42.3799 15.3727 42.5625C14.713 43.3622 14.0482 44.1388 13.3808 44.8922C12.7108 45.6457 12.0358 46.412 11.3531 47.1885C11.0795 47.5074 10.8033 47.852 10.5195 48.2171C10.2357 48.5823 9.93394 48.8908 9.61687 49.1428C9.36628 49.3254 9.15661 49.3305 8.98784 49.1608C8.81908 48.9911 8.82164 48.7777 9.00574 48.5283C9.18729 48.2763 9.40208 48.0268 9.65267 47.7748C9.90325 47.5228 10.1308 47.2734 10.3354 47.0214C10.6525 46.6562 10.9593 46.2911 11.2559 45.926C11.55 45.5608 11.8568 45.1957 12.1764 44.8305C12.8361 44.0308 13.5061 43.2439 14.1862 42.4674C14.8664 41.6908 15.5491 40.9039 16.2293 40.1042C16.2293 39.9216 16.2523 39.7776 16.2983 39.6748C16.3443 39.5719 16.4057 39.4922 16.485 39.4356C16.5642 39.3791 16.6614 39.3225 16.7739 39.2634C16.8864 39.2068 17.0015 39.1219 17.114 39.0062C17.2265 38.8931 17.3467 38.7542 17.472 38.5948C17.5973 38.4353 17.7149 38.2862 17.83 38.1499C18.5561 37.3502 19.2491 36.4939 19.9088 35.581C20.5685 34.6682 21.2257 33.7759 21.8854 32.9093C22.0669 32.6342 22.2536 32.3565 22.4479 32.071C22.6397 31.7856 22.8519 31.5182 23.0769 31.2662C23.3045 31.0142 23.5244 30.9576 23.7417 31.0939C23.9565 31.2302 23.9847 31.4359 23.8261 31.711C23.417 32.3976 22.9414 33.0713 22.3942 33.7322C21.8496 34.3956 21.3254 35.0462 20.8268 35.6865C20.5992 35.9616 20.3844 36.2393 20.1798 36.5248C19.9753 36.8102 19.7707 37.1033 19.5662 37.3991L19.5687 37.3811Z" fill="white"/>
<path d="M47.7417 41.2999C47.2865 41.5751 46.6447 41.9351 45.8163 42.3799C44.9878 42.8248 44.1133 43.2362 43.1928 43.6142C42.2722 43.9922 41.3824 44.2879 40.5181 44.5039C39.6539 44.7199 38.9609 44.7379 38.4393 44.5554C37.7796 44.3497 37.3602 44.0462 37.1787 43.6477C36.9972 43.2491 36.969 42.8325 37.0943 42.3979C37.2196 41.9634 37.4523 41.5416 37.7924 41.1302C38.1325 40.7188 38.4956 40.3999 38.8817 40.1711C39.1323 40.0348 39.324 40.0348 39.4621 40.1711C39.6667 40.3768 39.6667 40.5594 39.4621 40.7188C39.2806 40.8782 39.0658 41.0736 38.8152 41.2999C38.5646 41.5288 38.3549 41.7808 38.1836 42.0534C38.0123 42.3285 37.9228 42.6062 37.91 42.8916C37.8972 43.1771 38.0404 43.4342 38.337 43.6631C38.5186 43.7994 38.7743 43.8688 39.1041 43.8688C39.434 43.8688 39.7792 43.8354 40.1423 43.7659C40.5054 43.6965 40.8531 43.6065 41.1804 43.4908C41.5103 43.3777 41.7762 43.2851 41.9807 43.2156C42.7069 42.9405 43.4127 42.6551 44.0928 42.3594C44.7756 42.0636 45.4429 41.7191 46.1026 41.3308C46.4197 41.1482 46.7214 40.9528 47.0053 40.7496C47.2891 40.5439 47.578 40.3613 47.8746 40.2019C48.0562 40.1325 48.2147 40.1402 48.3528 40.2199C48.4883 40.2996 48.5574 40.4205 48.5574 40.5799C48.5343 41.1739 48.6545 41.7345 48.9153 42.2591C49.1762 42.7862 49.6364 43.1719 50.2961 43.4239C50.8408 43.6297 51.4263 43.7145 52.0502 43.6811C52.6741 43.6477 53.3057 43.5499 53.9424 43.3905C54.5791 43.2311 55.203 43.0434 55.8167 42.8248C56.4304 42.6088 57.0083 42.4185 57.5555 42.2591C57.8495 42.1896 58.0208 42.2642 58.0669 42.4828C58.1129 42.7014 58.0208 42.8659 57.7933 42.9791C57.2716 43.2542 56.681 43.5114 56.0213 43.7505C55.3615 43.9897 54.6865 44.1722 53.9936 44.2982C53.3006 44.4242 52.6128 44.4859 51.9326 44.4859C51.2524 44.4859 50.6209 44.3779 50.0404 44.1594C49.4625 43.9434 48.9665 43.6065 48.5574 43.1488C48.1482 42.6911 47.8772 42.0765 47.7391 41.2974L47.7417 41.2999Z" fill="white"/>
<path d="M57.8956 43.5268C58.2127 43.2979 58.6397 43.0125 59.1741 42.6705C59.7085 42.3285 60.2685 41.9968 60.8618 41.6779C61.4524 41.3591 62.0252 41.0736 62.5826 40.8216C63.14 40.5696 63.5977 40.4231 63.9634 40.3768C64.7816 40.3073 65.4618 40.5362 66.0064 41.0634C66.211 41.2691 66.4028 41.5082 66.5869 41.7834C66.7684 42.0585 66.9449 42.3311 67.1162 42.6062C67.2875 42.8814 67.469 43.1385 67.6608 43.3777C67.8526 43.6168 68.0648 43.8071 68.2924 43.9434C68.5865 44.1491 68.9163 44.2854 69.2794 44.3548C69.6425 44.4242 70.0107 44.4525 70.3866 44.4397C70.7625 44.4294 71.1307 44.3882 71.4938 44.3188C71.8569 44.2494 72.1969 44.1697 72.5166 44.0797C73.1763 43.8971 73.7363 43.7248 74.2042 43.5654C74.6696 43.4059 75.1989 43.1668 75.7895 42.8454C75.9941 42.7322 76.1935 42.6165 76.3853 42.5034C76.5771 42.3902 76.7893 42.2745 77.0143 42.1614C77.2649 42.0482 77.4567 42.0868 77.5948 42.2822C77.7303 42.4776 77.674 42.6654 77.4235 42.8479C77.1268 43.0536 76.7714 43.2645 76.3495 43.4805C75.9302 43.6991 75.4801 43.9022 75.0045 44.0977C74.5264 44.2931 74.061 44.4679 73.6084 44.6299C73.1533 44.7894 72.7441 44.9154 72.381 45.0079C71.3813 45.2599 70.5477 45.3551 69.8777 45.2985C69.2078 45.2419 68.6402 45.0928 68.1748 44.8537C67.7094 44.6145 67.3335 44.3059 67.0497 43.9279C66.7659 43.5499 66.5102 43.1874 66.2826 42.8325C66.055 42.4776 65.8351 42.1536 65.6178 41.8554C65.4004 41.5596 65.1473 41.3539 64.8507 41.2382C64.6001 41.1688 64.3111 41.1688 63.9813 41.2382C63.6514 41.3076 63.3165 41.4105 62.9764 41.5468C62.6363 41.6831 62.3065 41.8374 61.9894 42.0096C61.6723 42.1819 61.4089 42.3234 61.2069 42.4391C60.6163 42.7579 60.0486 43.0896 59.504 43.4316C58.9593 43.7737 58.4147 44.1388 57.8675 44.5271C57.6399 44.6634 57.42 44.8254 57.2027 45.0079C56.9879 45.1905 56.7552 45.3397 56.5046 45.4528C56.3001 45.5685 56.1287 45.5505 55.9932 45.4014C55.8577 45.2522 55.8449 45.0748 55.96 44.8717C56.2106 44.3471 56.5327 43.8199 56.9316 43.2954C57.3305 42.7708 57.6987 42.2565 58.0388 41.7525C58.4019 41.2279 58.765 40.6673 59.1281 40.0733C59.4912 39.4793 59.8773 38.9213 60.2864 38.3942C60.468 38.1885 60.6674 38.1422 60.8822 38.2579C61.097 38.3736 61.1379 38.5665 61.0024 38.8416C60.8669 39.0936 60.7058 39.3431 60.5242 39.5951C60.3427 39.8471 60.1611 40.0991 59.9796 40.3485C59.6395 40.8756 59.2917 41.4054 58.9414 41.9428C58.5886 42.4802 58.2434 43.0099 57.9033 43.5371L57.8956 43.5268Z" fill="white"/>
<path d="M86.2067 42.9791C85.6825 43.2311 85.1608 43.4522 84.6392 43.6477C84.115 43.8431 83.5832 44.0179 83.0385 44.1799C82.6294 44.2957 82.2152 44.3985 81.7958 44.4885C81.3765 44.5811 80.9495 44.6608 80.5173 44.7277C80.0622 44.7971 79.6096 44.8639 79.1544 44.9334C78.6993 45.0028 78.2467 45.0028 77.7916 44.9334C77.4055 44.8639 77.0705 44.6582 76.7867 44.3162C76.5028 43.9742 76.3954 43.5962 76.4619 43.1848C76.5079 42.9328 76.5923 42.7399 76.7176 42.6011C76.8429 42.4648 76.9963 42.3156 77.1779 42.1562C77.3364 42.0199 77.4847 41.8939 77.6202 41.7782C77.7558 41.6651 77.9143 41.5494 78.0984 41.4362C78.8476 40.9554 79.5738 40.6082 80.2795 40.3922C80.9827 40.1762 81.7779 40.0451 82.6652 39.9988C83.0053 39.9988 83.3633 40.0219 83.7391 40.0682C84.115 40.1145 84.4653 40.2174 84.7952 40.3768C85.125 40.5362 85.4038 40.7471 85.6288 41.0119C85.8563 41.2742 85.9919 41.6239 86.0379 42.0559C86.378 41.8965 86.7078 41.7139 87.0249 41.5082C87.342 41.3025 87.6718 41.1199 88.0119 40.9605C88.2625 40.8474 88.4594 40.8911 88.6077 41.0968C88.756 41.3025 88.7279 41.4954 88.5233 41.6805C88.4082 41.7936 88.2574 41.9325 88.063 42.0919C87.8687 42.2514 87.6821 42.4236 87.5005 42.6062C87.1144 43.0639 87.007 43.3314 87.1758 43.4111C87.3471 43.4908 87.659 43.5319 88.1116 43.5319C88.5207 43.5088 88.9222 43.4754 89.3211 43.4291C89.7174 43.3828 90.1112 43.3262 90.4973 43.2568C91.3156 43.1437 92.121 42.9765 92.9162 42.7605C93.7115 42.5445 94.5169 42.3439 95.3352 42.1614C95.5857 42.1151 95.7494 42.2179 95.8287 42.4699C95.9079 42.7219 95.8005 42.9045 95.5039 43.0177C95.1638 43.1334 94.6013 43.2799 93.8163 43.4625C93.0339 43.6451 92.2105 43.8174 91.3462 43.9768C90.482 44.1362 89.6586 44.2622 88.8762 44.3548C88.0937 44.4474 87.5516 44.4705 87.2576 44.4242C86.9405 44.3779 86.649 44.2237 86.3882 43.9614C86.1274 43.6991 86.0532 43.3854 86.1657 43.0202L86.199 42.9868L86.2067 42.9791ZM85.1174 42.3954C85.1634 42.0071 85.0841 41.7114 84.8796 41.5056C84.675 41.2999 84.3912 41.1405 84.0281 41.0248C83.3684 40.8422 82.6754 40.8011 81.9492 40.9039C81.2231 41.0068 80.5403 41.1894 79.9062 41.4516C79.2695 41.7139 78.7198 42.0174 78.2544 42.3594C77.789 42.7014 77.5001 43.0151 77.385 43.3005C77.2725 43.5859 77.3722 43.8045 77.6918 43.9511C78.0089 44.1002 78.6328 44.1182 79.5661 44.0025C80.5199 43.8894 81.4685 43.6991 82.4121 43.4368C83.3556 43.1745 84.2582 42.8479 85.1199 42.4596V42.3902L85.1174 42.3954Z" fill="white"/>
<path d="M95.6088 43.5268C95.9258 43.2979 96.3529 43.0125 96.8873 42.6705C97.4217 42.3285 97.9817 41.9968 98.5749 41.6779C99.1656 41.3591 99.7383 41.0736 100.296 40.8216C100.853 40.5696 101.311 40.4231 101.677 40.3768C102.495 40.3073 103.175 40.5362 103.72 41.0634C103.924 41.2691 104.116 41.5082 104.3 41.7834C104.482 42.0585 104.658 42.3311 104.829 42.6062C105.001 42.8814 105.182 43.1385 105.374 43.3777C105.566 43.6168 105.778 43.8071 106.006 43.9434C106.3 44.1491 106.629 44.2854 106.993 44.3548C107.356 44.4242 107.724 44.4525 108.1 44.4397C108.476 44.4294 108.844 44.3882 109.207 44.3188C109.57 44.2494 109.91 44.1697 110.23 44.0797C110.889 43.8971 111.449 43.7248 111.917 43.5654C112.383 43.4059 112.912 43.1668 113.503 42.8454C113.707 42.7322 113.907 42.6165 114.098 42.5034C114.29 42.3902 114.502 42.2745 114.727 42.1614C114.978 42.0482 115.17 42.0868 115.308 42.2822C115.443 42.4776 115.387 42.6654 115.137 42.8479C114.84 43.0536 114.485 43.2645 114.063 43.4805C113.643 43.6991 113.193 43.9022 112.718 44.0977C112.24 44.2931 111.774 44.4679 111.322 44.6299C110.866 44.7894 110.457 44.9154 110.094 45.0079C109.094 45.2599 108.261 45.3551 107.591 45.2985C106.921 45.2419 106.353 45.0928 105.888 44.8537C105.423 44.6145 105.047 44.3059 104.763 43.9279C104.479 43.5499 104.223 43.1874 103.996 42.8325C103.768 42.4776 103.548 42.1536 103.331 41.8554C103.114 41.5596 102.86 41.3539 102.564 41.2382C102.313 41.1688 102.024 41.1688 101.694 41.2382C101.365 41.3076 101.03 41.4105 100.69 41.5468C100.349 41.6831 100.02 41.8374 99.7025 42.0096C99.3855 42.1819 99.1221 42.3234 98.9201 42.4391C98.3294 42.7579 97.7618 43.0896 97.2171 43.4316C96.6725 43.7737 96.1278 44.1388 95.5806 44.5271C95.3531 44.6634 95.1332 44.8254 94.9158 45.0079C94.701 45.1905 94.4683 45.3397 94.2178 45.4528C94.0132 45.5685 93.8419 45.5505 93.7064 45.4014C93.5708 45.2522 93.558 45.0748 93.6731 44.8717C93.9237 44.3471 94.2459 43.8199 94.6448 43.2954C95.0437 42.7708 95.4119 42.2565 95.752 41.7525C96.1151 41.2279 96.4781 40.6673 96.8412 40.0733C97.2043 39.4793 97.5904 38.9213 97.9996 38.3942C98.1811 38.1885 98.3806 38.1422 98.5953 38.2579C98.8101 38.3736 98.851 38.5665 98.7155 38.8416C98.58 39.0936 98.4189 39.3431 98.2374 39.5951C98.0558 39.8471 97.8743 40.0991 97.6927 40.3485C97.3526 40.8756 97.0049 41.4054 96.6546 41.9428C96.3017 42.4802 95.9565 43.0099 95.6164 43.5371L95.6088 43.5268Z" fill="white"/>
<path d="M123.445 40.0322C124.715 38.2502 126.04 36.5273 127.413 34.8585C128.786 33.1922 130.223 31.5696 131.724 29.9933C131.86 29.857 132.018 29.7027 132.202 29.5304C132.384 29.3581 132.578 29.2219 132.783 29.119C132.987 29.0161 133.202 28.9596 133.43 28.9467C133.657 28.9364 133.872 28.9981 134.077 29.1344C134.327 29.2939 134.388 29.4944 134.263 29.7336C134.138 29.9727 134.03 30.1964 133.938 30.4022C133.688 30.883 133.381 31.3896 133.018 31.927C132.655 32.4645 132.279 33.0019 131.893 33.5367C131.507 34.0742 131.116 34.5808 130.717 35.0616C130.32 35.5425 129.962 35.9513 129.643 36.2959C128.963 37.0493 128.252 37.7693 127.513 38.4533C126.774 39.1399 125.996 39.7905 125.178 40.4076C125.291 40.4771 125.365 40.5619 125.401 40.6648C125.434 40.7676 125.434 40.8654 125.401 40.9554C125.367 41.0479 125.303 41.1276 125.214 41.1945C125.122 41.2639 125.009 41.2871 124.874 41.2639C124.759 41.2408 124.664 41.2125 124.585 41.1791C124.506 41.1456 124.409 41.1276 124.296 41.1276C124.16 41.2202 123.994 41.3154 123.802 41.4182C123.608 41.5211 123.457 41.6291 123.342 41.7448C123.184 41.9042 123.03 42.0996 122.882 42.3285C122.734 42.5574 122.603 42.7631 122.491 42.9457C121.808 43.9742 121.138 45.0002 120.481 46.0288C119.821 47.0574 119.174 48.1065 118.538 49.1814C118.198 49.7754 117.873 50.3745 117.566 50.9814C117.259 51.5857 116.914 52.1746 116.528 52.7454C116.436 52.8817 116.341 52.9563 116.239 52.9691C116.137 52.9794 116.039 52.964 115.95 52.9177C115.858 52.8714 115.797 52.7866 115.763 52.6606C115.73 52.5346 115.735 52.4034 115.781 52.2671C115.871 52.0383 116.065 51.6628 116.362 51.1357C116.656 50.6111 116.98 50.0557 117.333 49.4745C117.686 48.8934 118.031 48.3277 118.371 47.7774C118.711 47.2297 118.962 46.8182 119.121 46.5431C119.507 45.926 119.893 45.3165 120.279 44.7097C120.665 44.1054 121.051 43.5062 121.437 42.9097C121.391 42.9328 121.363 42.9508 121.353 42.9611C121.343 42.9714 121.312 42.9894 121.269 43.0125C120.744 43.3314 120.166 43.5962 119.53 43.7994C118.893 44.0051 118.269 44.1311 117.655 44.1774C117.451 44.2005 117.177 44.1954 116.837 44.1594C116.497 44.1234 116.162 44.0514 115.832 43.9357C115.502 43.8225 115.224 43.6554 114.999 43.4394C114.771 43.2234 114.669 42.9431 114.692 42.6011C114.738 42.1665 114.953 41.8476 115.339 41.6419C115.725 41.4362 116.088 41.2434 116.428 41.0608C118.653 40.0322 120.992 39.6902 123.447 40.0322H123.445ZM116.732 41.8142C116.006 42.1356 115.648 42.4417 115.658 42.7399C115.669 43.0382 116.106 43.2311 116.97 43.3237C117.448 43.3699 117.924 43.3365 118.402 43.2208C118.88 43.1077 119.343 42.9457 119.798 42.7399C120.253 42.5342 120.696 42.3054 121.128 42.0559C121.56 41.8039 121.969 41.5648 122.355 41.3359L122.662 41.1302L122.867 40.8551C121.913 40.7419 120.89 40.7574 119.801 40.9065C118.711 41.0556 117.689 41.3591 116.735 41.8142H116.732ZM125.012 39.4485C126.648 38.0548 128.147 36.5865 129.51 35.0462C130.873 33.5033 132.077 31.7856 133.12 29.8904C132.847 30.0962 132.489 30.4279 132.046 30.883C131.604 31.3407 131.121 31.8756 130.599 32.4927C130.077 33.1099 129.53 33.7605 128.963 34.4445C128.395 35.1285 127.85 35.7919 127.326 36.4322C126.804 37.0725 126.331 37.6665 125.912 38.2142C125.493 38.7619 125.168 39.1965 124.94 39.5153L125.009 39.4459L125.012 39.4485Z" fill="white"/>
</g>
<defs>
<clipPath id="clip0_41_108">
<rect width="193" height="53" fill="white"/>
</clipPath>
</defs>
</svg>
